{"title":"The Twilight Saga Breaking Dawn Part 1 2011 TS READNFO XviD - Mi","uid":6839115,"size":1519495043,"categoryP":"video","categoryS":"movies","magnet":"?xt=urn:btih:29a2061a75aaa77dd0e0be7506c3ed11225e074b&amp;dn=The+Twilight+Saga+Breaking+Dawn+Part+1+2011+TS+READNFO+XviD+-+Mi&amp;tr=udp%3A%2F%2Ftracker.openbittorrent.com%3A80&amp;tr=udp%3A%2F%2Fopen.demonii.com%3A1337&amp;tr=udp%3A%2F%2Ftracker.coppersurfer.tk%3A6969&amp;tr=udp%3A%2F%2Fexodus.desync.com%3A6969","seeders":0,"leechers":1,"uploader":"sceneline","files":105,"time":1322110135,"description":"- &lt;a href=&quot;\nhttp://www.Speed.Cd&quot; rel=&quot;nofollow&quot; target=&quot;_NEW&quot;&gt;\nhttp://www.Speed.Cd&lt;/a&gt;      fast  and The Hottest Private Tracker on the net\n\n   signup is open now\n\nPlease Seed back to make the speed Faster!!!\n\n------------------nfo--------------------------\n-The Twilight Saga Breaking Dawn Part 1 2011 TS READNFO XviD - MiSTERE\n\n &lt;a href=&quot;\nhttp://www.imdb.com/title/tt1324999/&quot; rel=&quot;nofollow&quot; target=&quot;_NEW&quot;&gt;\nhttp://www.imdb.com/title/tt1324999/&lt;/a&gt;\n\n\nVideo\nID                               : 0\nFormat                           : MPEG-4 Visual\nFormat profile                   : Advanced Simple@L5\nFormat settings, BVOP            : 2\nFormat settings, QPel            : No\nFormat settings, GMC             : No warppoints\nFormat settings, Matrix          : Default (H.263)\nMuxing mode                      : Packed bitstream\nCodec ID                         : XVID\nCodec ID/Hint                    : XviD\nDuration                         : 1h 46mn\nBit rate                         : 1 746 Kbps\nWidth                            : 720 pixels\nHeight                           : 304 pixels\nDisplay aspect ratio             : 2.35:1\nFrame rate                       : 24.000 fps\nColor space                      : YUV\nChroma subsampling               : 4:2:0\nBit depth                        : 8 bits\nScan type                        : Progressive\nCompression mode                 : Lossy\nBits/(Pixel*Frame)               : 0.332\nStream size                      : 1.30 GiB (93%)\nWriting library                  : XviD 64\n\nAudio\nID                               : 1\nFormat                           : MPEG Audio\nFormat version                   : Version 1\nFormat profile                   : Layer 3\nMode                             : Joint stereo\nMode extension                   : MS Stereo\nCodec ID                         : 55\nCodec ID/Hint                    : MP3\nDuration                         : 1h 46mn\nBit rate mode                    : Constant\nBit rate                         : 128 Kbps\nChannel(s)                       : 2 channels\nSampling rate                    : 44.1 KHz\nCompression mode                 : Lossy\nStream size                      : 97.9 MiB (7%)\nAlignment                        : Split accross interleaves\nInterleave, duration             : 42 ms (1.00 video frame)\n\n\nCropped Resized Sharpened and Tweaked RGB\n42 seconds OF CAM audio in 2 areas\nENGLISH subs hardcoded when needed\nafter credit scene included, after credits\n\n\n[IMG]http://i.imgur.com/4CFEs.png[/IMG]\n[IMG]http://i.imgur.com/Vds0W.png[/IMG]\n[IMG]http://i.imgur.com/Nda7x.png[/IMG]\n[IMG]http://i.imgur.com/twPX4.png[/IMG]\n[IMG]http://i.imgur.com/meDYV.png[/IMG]\n[IMG]http://i.imgur.com/lQvDS.png[/IMG]\n[IMG]http://i.imgur.com/03hz4.png[/IMG]","torrent":{"xt":"urn:btih:29a2061a75aaa77dd0e0be7506c3ed11225e074b","amp;dn":"The+Twilight+Saga+Breaking+Dawn+Part+1+2011+TS+READNFO+XviD+-+Mi","amp;tr":["udp%3A%2F%2Ftracker.openbittorrent.com%3A80","udp%3A%2F%2Fopen.demonii.com%3A1337","udp%3A%2F%2Ftracker.coppersurfer.tk%3A6969","udp%3A%2F%2Fexodus.desync.com%3A6969"],"infoHash":"29a2061a75aaa77dd0e0be7506c3ed11225e074b","infoHashBuffer":{"type":"Buffer","data":[41,162,6,26,117,170,167,125,208,224,190,117,6,195,237,17,34,94,7,75]},"announce":[],"urlList":[]}}